# xmcd
#
# Track frame offsets:
#	150
#	17372
#	36463
#	55137
#	68526
#	84056
#	100268
#	113715
#	130464
#	147503
#	166304
#	182452
#	198573
#	213629
#	228115
#	246300
#	262909
#	277919
#	293210
#	310939
#	324696
#
# Disc length: 4552 seconds
#
# Revision: 0
# Processed by: cddbd v1.5.2PL0 Copyright (c) Steve Scherf et al.
# Submitted via: EZCDAudioConverter 2.2.2.1
#
DISCID=2911c615
DTITLE=Danny daniel - Grandes exitos
DYEAR=2002
DGENRE=Balada
TTITLE0=Por El Amor De Una Mujer
TTITLE1=El Amor, El Amor
TTITLE2=Viento De Otoño
TTITLE3=El Vals De Las Mariposas
TTITLE4=Se Que Me Engañaste Un Dia
TTITLE5=Esa Eres Tu
TTITLE6=16 Años
TTITLE7=Que Pena Me Da
TTITLE8=Niña No Te Pintes Tanto
TTITLE9=Isabel
TTITLE10=Muchacha Triste
TTITLE11=Con Ella
TTITLE12=Hoy Tan Bonita
TTITLE13=Tu Amor Fue Diferente
TTITLE14=La Mitad De Ti, La Mitad De Mi
TTITLE15=La Rueda Del Amor
TTITLE16=Querida Mia
TTITLE17=Ay Amor Si Tu Quisieras
TTITLE18=Nadie Mas Que Tu
TTITLE19=De Ti Mujer
TTITLE20=Las Cosas Que Tiene La Vida
EXTD=
EXTT0=
EXTT1=
EXTT2=
EXTT3=
EXTT4=
EXTT5=
EXTT6=
EXTT7=
EXTT8=
EXTT9=
EXTT10=
EXTT11=
EXTT12=
EXTT13=
EXTT14=
EXTT15=
EXTT16=
EXTT17=
EXTT18=
EXTT19=
EXTT20=
PLAYORDER=
